<?xml version="1.0" encoding="utf-8"?>
<!-- Generator: Adobe Illustrator 23.0.4, SVG Export Plug-In . SVG Version: 6.00 Build 0)  -->
<svg version="1.1" id="Layer_1" xmlns="http://www.w3.org/2000/svg" xmlns:xlink="http://www.w3.org/1999/xlink" x="0px" y="0px"
	 viewBox="0 0 600 600" style="enable-background:new 0 0 600 600;" xml:space="preserve">
<style type="text/css">
	.st0{fill:#EE7372;}
</style>
<path class="st0" d="M216.28,415.71h76.49v133.2L216.28,415.71z M307.27,415.71h76.45l-76.45,133.13V415.71z M307.27,329.26
	l71.49,71.87h-71.49V329.26z M292.78,329.19v71.95h-71.53L292.78,329.19z M52.3,307.11h132.46v76.9L52.3,307.11z M199.26,307.11
	h86.01l4.47,4.49l-89.03,89.53h-1.45V307.11z M310.27,311.6l4.46-4.49h86.01v94.02h-1.45L310.27,311.6z M415.24,307.11H547.7
	l-132.46,76.9V307.11z M199.26,220.63l71.52,71.9h-71.52V220.63z M400.74,220.63v71.9h-71.52L400.74,220.63z M184.76,215.65v76.89
	H52.3L184.76,215.65z M415.24,215.65l132.46,76.89H415.24V215.65z M199.26,199.99v-1.45h93.53l-0.01,94h-1.47L199.26,199.99z
	 M307.28,198.53h93.46v1.45l-92.05,92.55h-1.42L307.28,198.53z M307.28,50.82l76.43,133.13h-76.43V50.82z M292.79,50.69v133.26
	h-76.51L292.79,50.69z M300,9L194.14,193.37L10.78,299.83l183.36,106.44L300,590.65l105.86-184.37l183.36-106.44L405.86,193.37
	L300,9z"/>
</svg>
